<?xml version="1.0" standalone="no"?>
<!DOCTYPE svg PUBLIC "-//W3C//DTD SVG 20010904//EN"
 "http://www.w3.org/TR/2001/REC-SVG-20010904/DTD/svg10.dtd">
<svg version="1.0" xmlns="http://www.w3.org/2000/svg"
 width="1024.000000pt" height="1024.000000pt" viewBox="0 0 1024.000000 1024.000000"
 preserveAspectRatio="xMidYMid meet">
<metadata>
Created by potrace 1.16, written by Peter Selinger 2001-2019
</metadata>
<g transform="translate(0.000000,1024.000000) scale(0.100000,-0.100000)"
fill="#000000" stroke="none">
<path d="M0 5120 l0 -5120 5120 0 5120 0 0 5120 0 5120 -5120 0 -5120 0 0
-5120z m7718 2790 c200 -42 359 -129 507 -275 132 -130 219 -290 277 -505 21
-80 22 -82 169 -570 10 -36 24 -83 31 -105 6 -22 18 -60 26 -85 8 -25 18 -60
23 -77 5 -18 13 -48 18 -65 5 -18 31 -107 59 -198 55 -181 99 -327 113 -377
23 -83 29 -102 49 -168 12 -38 25 -83 30 -100 9 -32 88 -296 122 -405 11 -36
24 -80 29 -97 5 -18 13 -48 18 -65 6 -18 14 -49 20 -68 5 -19 19 -66 31 -105
12 -38 25 -83 30 -100 5 -16 29 -100 55 -185 26 -85 51 -168 55 -185 5 -16 18
-61 30 -100 21 -68 31 -101 49 -167 5 -18 35 -116 67 -218 l58 -185 4 -223 c3
-220 3 -224 -23 -305 -52 -159 -138 -298 -254 -415 -116 -116 -229 -182 -416
-244 l-70 -23 -3651 -3 c-2229 -1 -3685 1 -3740 7 -116 12 -154 22 -240 58
-164 69 -331 203 -421 338 -56 84 -107 195 -139 300 -26 84 -28 103 -28 275
-1 178 4 219 36 315 50 150 122 261 248 383 61 60 140 122 155 122 4 0 19 8
33 18 15 11 126 70 247 132 121 62 252 130 290 150 39 20 178 92 310 160 132
67 245 126 250 130 6 4 123 65 260 135 138 70 282 145 322 166 40 21 152 80
250 130 190 98 392 202 538 279 50 26 180 94 290 150 110 56 241 124 290 150
50 26 171 89 270 140 99 51 236 122 305 158 69 35 179 93 245 127 66 34 203
105 305 158 584 301 610 317 726 440 59 63 223 242 257 281 10 12 35 39 55 61
21 22 103 112 183 200 403 442 396 436 495 502 120 79 244 131 379 159 97 19
268 17 373 -6z"/>
</g>
</svg>
